<?xml version="1.0" encoding="utf-8"?>
<!-- Generator: Adobe Illustrator 24.0.1, SVG Export Plug-In . SVG Version: 6.00 Build 0)  -->
<svg version="1.1" id="svg" xmlns="http://www.w3.org/2000/svg" xmlns:xlink="http://www.w3.org/1999/xlink" x="0px" y="0px"
	 viewBox="0 0 400 400" style="enable-background:new 0 0 400 400;" xml:space="preserve">
<style type="text/css">
	.st0{fill:#FFFFFF;}
</style>
<g id="svgg">
	<path id="path0" class="st0" d="M125.9,1.9c-20.5,6.2-34.2,23.9-30.8,39.5c0.7,3.1,1.6,6.9,2,8.6c0.6,2.3-1.2,3-8.1,3.1
		c-20.6,0.1-37.5,33.2-27,52.8c1.6,3,1.1,3.9-3.2,5c-14.3,3.6-23.4,17.1-23.7,35.2c-0.2,8.7-1.2,12-4.8,15.7
		c-13.3,13.3-13.5,38.7-0.4,54.4l5.3,6.3l-5.3,5.7c-20.9,22.4-14,72.3,10.9,78.6c3.8,1,4.5,2.2,3.7,7.2c-2.5,17,7.1,29.8,30.6,41
		c12.1,5.7,14.4,7.7,16.8,14.1c9.8,27.1,45.9,39.7,73.9,25.8c15.3-7.6,18.2-12.9,20.5-37.2c3.2-34.1,5-319.2,2.1-328.1
		C181.7,10,148.1-4.9,125.9,1.9 M239,7c-13.5,5.1-19.9,6.5-25.6,5.6C200.7,10.7,191.7,26.3,201,34c2.6,2.1,3,13.6,3,80.2V192h21.1
		c18.2,0,21.9,0.6,26.7,4.1c9.7,7.2,20.3,1.5,20.3-10.9c0-9-14.4-15-20-8.2c-1.9,2.3-6.9,3-20.2,3H214v-26v-26h11.8
		c7.5,0,14,1.2,17.8,3.4c12.2,7,25-5,17.5-16.5c-3.8-5.7-15-6.9-19.1-1.9c-1.7,2.1-6.3,3-15.2,3H214V77c0-36.3,0.3-39.3,4-43
		c2.2-2.2,4-5.1,4-6.5c0-2.1,35.9-16.6,37-15c0.2,0.3,4.1,5.8,8.7,12.3s8.3,13.3,8.3,15.1c0,5.3-18.4,22.1-24.3,22.1
		c-10.3,0-15.7,13.8-8.1,20.7c7.1,6.5,20.3,2.3,20.3-6.4c0-4.8,22.2-26.3,27.2-26.3c9.4,0,14.3-14.2,7.1-20.7
		c-2-1.8-6.4-3.3-9.9-3.3c-5.3,0-7.4-1.7-14.9-12.5C263.1-1.5,262.1-1.7,239,7 M155,14c4.5,2.2,11.6,7,15.6,10.8l7.4,6.8V79
		c0,26.1-0.7,47.1-1.5,46.6c-23.3-11.9-42.5-15.1-42.5-7.1c0,5.1,4,7.4,13.1,7.5c7.4,0,24.9,10.2,27.9,16.1
		c2.3,4.4,2.9,13.8,2.9,40.8V218h-4.7c-2.6,0-9.1-1.3-14.5-3c-13.9-4.2-18.8-3.9-18.8,1.1c0,5.3,11,10,26.5,11.4l11.5,1v27.7V284
		h-16.1c-25.2,0-33.6-5.5-46.2-30.4c-4.3-8.4-7-11.6-9.4-11.2c-5.8,1.1-5,9.2,2.3,22.2c13.3,23.8,24.1,30.2,50.9,30.4l18.6,0.1
		l-1.2,25c-2.7,57.7-3.2,59.3-21.1,66.7l-7,2.9l0.7-22.6c0.5-17.3,0-24-2.4-28.4c-4.4-8.4-19.4-22.9-23.1-22.2
		c-6.4,1.2-4.7,8,4.6,17.3c10.9,11,12.2,16.2,10.3,39.3l-1.4,17.2l-6.3-1.3c-11.7-2.3-21.8-11.2-28.8-25c-3.6-7.1-7.6-13.3-9-13.7
		c-40.9-12.6-47-30.1-20.6-59.6c17.7-19.8,12.2-30.3-5.9-11c-13.1,14.3-21.3,18.3-27,13.2c-10.5-9.4-15-31.7-9-45.5
		c5.7-13.1,7.6-14.4,24.5-15.4c21-1.3,23.8-9.2,4.7-13c-6-1.2-13.4-3.8-16.3-5.7c-12-7.8-16-29.3-7.5-40.1l4.2-5.3l8.8,8.1
		c5.4,5,10.7,8.1,13.8,8.1c7.9,0,6.1-5.2-5.5-15.9c-14.4-13.2-15.6-29.7-3-41.2c11.6-10.7,12.1-10.4,28.1,13.4
		c6.3,9.5,15.4,20.8,20.1,25.1l8.5,7.9l-6.5,14.9c-7.2,16.5-7.6,22.6-1.5,23.4c3.4,0.5,5.2-2.3,11-16.8l6.9-17.4l10.3-0.5
		c12.5-0.6,18.7-3.6,18.7-9.1c0-3.8-0.8-4-12.7-2.7c-22,2.4-39.8-14.4-62-58.5C65.1,86.4,73.4,64,90.9,64c5.5,0,19.9,6.5,22,10
		c0.7,1.1,3.5,2,6.1,2c6.7,0,6.3-5.3-0.8-14C98.9,38.3,102.7,21,129,12.8C140.4,9.2,145.6,9.4,155,14 M314.4,53.1
		c-2.5,1.7-4.4,5.2-4.4,7.8c0,6.5-18.9,23-26.3,23c-10.3,0-15.9,13.5-8.7,20.7c2.2,2.2,3,7.8,3,21.9c0,14.4-0.7,19.5-3,21.4
		c-7.6,6.3-1.4,20,9,20c11.2,0,16.3-13.5,8-21c-3.4-3.1-4-6.2-4-20.9c0-14.8,0.6-17.7,4-20.7c2.2-1.9,4-5.5,4-7.9
		c0-6,19.3-22.8,25.2-22c6.4,1,25.7,25.3,26,32.9c0.6,10.9,12.9,15.4,20.7,7.5c7.4-7.4,2.8-20-7.2-20c-6.1,0-26.7-25.5-26.7-33.2
		C334,51.7,323.7,46.7,314.4,53.1 M309.3,121.7c-8,8.9-2.1,21.3,10,20.8c14.8-0.6,52.7,18.7,52.7,26.9v6.6h-17.6h-17.6L326,187
		c-6.3,6.3-12.6,11-15,11c-9.2,0-13.3,17.6-5.1,21.9c10,5.4,20.1-0.2,20.1-11.2c0-12.3,12.5-20.7,30.6-20.7H372v15.6
		c0,17.5-5.5,26.4-16.3,26.4c-10.3,0-15.7,13.8-8,20.7c8.4,7.6,22.3,1.6,22.3-9.7c0-2.3,3.2-7.2,7-11l7-6.8l-0.5-33.9l-0.5-33.9
		l-26.4-12.1c-18.4-8.5-26.5-13.2-26.5-15.5C329.9,118.8,315.6,114.7,309.3,121.7 M201.1,211.1c-4,4-4.1,13.7-0.1,17.6
		c2.5,2.5,3,12.9,3,67.9v64.9l18.2,19.2l18.2,19.2h31.4h31.4l12.4-17c8.4-11.6,13.6-17,16.4-17c9.4,0,12.6-17.5,4-22.1
		c-9.9-5.3-21.9,2.3-19.3,12.3c0.8,3-1.8,8.2-8.9,18l-10,13.8H283h-15v-17.8c0-13.2,0.9-19.4,3.4-23.8c7.1-12.3-4.8-25.1-16.3-17.6
		c-6,3.9-7.2,15.1-2.2,19.3c2.3,1.9,3,7,3,21.2V388h-5.6c-5.5,0-8.4-2.5-30.2-26.4l-6.7-7.4l1.5-29.1l1.5-29.1h9.5
		c6.2,0,10.5,1.1,12.1,3.1c8.3,10,26.2-3.2,19.9-14.6c-3.7-6.6-15.6-8.8-19.9-3.6c-1.7,2-6,3.1-12.3,3.1H216v-26.8
		c0-21.3,0.6-27.3,3-29.2c4.1-3.4,3.8-12.7-0.7-16.7C213.7,207.1,205.2,207,201.1,211.1 M249.1,221.1c-6.6,6.6-2,20.9,6.8,20.9
		c2,0,6.7,4,10.4,8.9l6.7,8.9l14.5,0.1L302,260v7.8c0,4.8-1.1,8.2-2.7,8.8c-9.8,3.7-3.6,21.4,7.5,21.4c11.9,0,17.4-11.8,9.3-20
		c-7.6-7.6-5.5-18,3.7-18c7.8,0,9,0.7,35.7,20.3l10.4,7.6l-6.1,15l-6.1,15h-19.8c-17.1,0-20.3-0.5-23.8-4c-8.1-8.1-22-2.9-22,8.3
		c0,9.9,15.8,16.1,22,8.7c2-2.4,7.7-3,27-3h24.5l8.5-20.9c4.7-11.5,8.6-21.6,8.6-22.5s-10.1-9-22.5-18.1L333.5,250h-26.7h-26.7
		l-5.1-6.7c-3.2-4.2-5.1-9.3-5.1-13.6C270,218.5,257.1,213.2,249.1,221.1"/>
</g>
</svg>
