<svg id="Layer_1" data-name="Layer 1" xmlns="http://www.w3.org/2000/svg" xmlns:xlink="http://www.w3.org/1999/xlink" viewBox="0 0 543.34 308"><defs><style>.cls-1{fill:url(#linear-gradient);}.cls-2{fill:url(#linear-gradient-2);}.cls-3{fill:url(#linear-gradient-3);}</style><linearGradient id="linear-gradient" x1="-21.413" y1="590.428" x2="-19.961" y2="590.428" gradientTransform="matrix(165.465, -137.912, 122.636, 186.075, -68520.964, -112527.4)" gradientUnits="userSpaceOnUse"><stop offset="0" stop-color="#71e3ff"/><stop offset="1" stop-color="#182ef0"/></linearGradient><linearGradient id="linear-gradient-2" x1="-20.089" y1="588.673" x2="-18.637" y2="588.673" gradientTransform="matrix(-200.62, -163.744, 163.407, -201.034, -99936.271, 115364.477)" gradientUnits="userSpaceOnUse"><stop offset="0" stop-color="#f925ff"/><stop offset="1" stop-color="#0048ba"/></linearGradient><linearGradient id="linear-gradient-3" x1="-18.926" y1="585.551" x2="-17.473" y2="585.551" gradientTransform="matrix(-58.46, -40.245, 35.569, -66.146, -21718.216, 38184.112)" gradientUnits="userSpaceOnUse"><stop offset="0" stop-color="#fff"/><stop offset="1" stop-color="#053f8e"/></linearGradient></defs><g id="g12"><g id="g14"><g id="g20"><g id="g22"><path id="path30" class="cls-1" d="M488.216,77.749V179.3a83.643,83.643,0,0,1-83.642,83.646h-14.18A83.646,83.646,0,0,1,307.31,188.86h0a138.874,138.874,0,0,1-32.1,80.1h0A137.579,137.579,0,0,0,385.953,324H409.6a139.5,139.5,0,0,0,139.5-139.49h0V16a61.848,61.848,0,0,0-60.884,61.749" transform="translate(-5.76 -16)"/></g></g></g></g><g id="g32"><g id="g34"><g id="g40"><g id="g42"><path id="path50" class="cls-2" d="M168.164,16.461H5.76A61.292,61.292,0,0,0,67.509,76.7h95.422a83.649,83.649,0,0,1,83.64,83.652h0v14.178a83.511,83.511,0,0,1-83.534,83.5H67.509A61.881,61.881,0,0,0,5.76,318.953H168.131a139.41,139.41,0,0,0,139.5-139.32h0V155.914A139.468,139.468,0,0,0,168.168,16.461h0" transform="translate(-5.76 -16)"/></g></g></g></g><g id="g52"><g id="g54"><g id="g60"><g id="g62"><path id="path70" class="cls-3" d="M119.5,169.376h-.037c0,.209.018.414.025.625h0c.008.209-.021.416-.025.626h.052a27.069,27.069,0,0,0,27.22,25.347h18.638V144.033l-18.1-.006h-.757a27.076,27.076,0,0,0-27.02,25.349" transform="translate(-5.76 -16)"/></g></g></g></g></svg>